/* XPM */
static char *result[] = {
/* columns rows colors chars-per-pixel */
"40 60 181 2 ",
"   c #4E240C",
".  c #4F2B0C",
"X  c #502A07",
"o  c #51270F",
"O  c #512D0E",
"+  c #4F300A",
"@  c #543305",
"#  c #53320E",
"$  c #583D0C",
"%  c #4C2611",
"&  c #4E2A14",
"*  c #4E2E1B",
"=  c #522711",
"-  c #522C15",
";  c #522E19",
":  c #4F301A",
">  c #553513",
",  c #583614",
"<  c #573A12",
"1  c #593B12",
"2  c #54321C",
"3  c #59371B",
"4  c #573A1A",
"5  c #593D1C",
"6  c #4F3525",
"7  c #4E3828",
"8  c #543623",
"9  c #593723",
"0  c #563924",
"q  c #593B22",
"w  c #553B2B",
"e  c #5A3D2A",
"r  c #593F31",
"t  c #5D460D",
"y  c #5A4313",
"u  c #5E4A13",
"i  c #5D441C",
"p  c #5E4E18",
"a  c #614F11",
"s  c #625313",
"d  c #655A16",
"f  c #62531A",
"g  c #675B1D",
"h  c #6B710E",
"j  c #6B6316",
"k  c #6B651A",
"l  c #6E6C1A",
"z  c #6F701A",
"x  c #72751B",
"c  c #74781D",
"v  c #5E4424",
"b  c #5C422D",
"n  c #5F4A29",
"m  c #554336",
"M  c #5C4433",
"N  c #5D4935",
"B  c #564639",
"V  c #5A473A",
"C  c #56483D",
"Z  c #5C4A3C",
"A  c #604625",
"S  c #614C20",
"D  c #60432B",
"F  c #634C2D",
"G  c #655426",
"H  c #675A24",
"J  c #655529",
"K  c #614433",
"L  c #634C33",
"P  c #634C3C",
"I  c #684D3D",
"U  c #665133",
"Y  c #64513D",
"T  c #66583E",
"R  c #6B593D",
"E  c #6E662A",
"W  c #7A762E",
"Q  c #6F603A",
"!  c #70653C",
"~  c #786139",
"^  c #5C4E42",
"/  c #5E5146",
"(  c #57534C",
")  c #5D544A",
"_  c #5F594E",
"`  c #5D5752",
"'  c #5E5A54",
"]  c #5F5E58",
"[  c #614F43",
"{  c #625245",
"}  c #6C5544",
"|  c #655947",
" . c #6E5846",
".. c #62554A",
"X. c #6A5749",
"o. c #645A4D",
"O. c #6B5C4C",
"+. c #725A45",
"@. c #715D4D",
"#. c #635C55",
"$. c #6A5E54",
"%. c #645F59",
"&. c #685F59",
"*. c #5F615C",
"=. c #6F614E",
"-. c #71614E",
";. c #676157",
":. c #6B6254",
">. c #6D6856",
",. c #64625C",
"<. c #6C635B",
"1. c #6D695C",
"2. c #736353",
"3. c #766957",
"4. c #786E54",
"5. c #71655C",
"6. c #726A5C",
"7. c #7A6C5B",
"8. c #666561",
"9. c #6C6761",
"0. c #676965",
"q. c #6D6A62",
"w. c #6D6E6A",
"e. c #706761",
"r. c #736C63",
"t. c #786F63",
"y. c #746F69",
"u. c #6D716C",
"i. c #757164",
"p. c #797166",
"a. c #73726B",
"s. c #7A746C",
"d. c #7D7A6E",
"f. c #6D7372",
"g. c #737572",
"h. c #7C7771",
"j. c #757976",
"k. c #7D7B72",
"l. c #7D7E79",
"z. c #817466",
"x. c #81756B",
"c. c #847A6F",
"v. c #837D74",
"b. c #827F79",
"n. c #838175",
"m. c #8A8076",
"M. c #84827A",
"N. c #8A857C",
"B. c #87897D",
"V. c #8C897E",
"C. c #848681",
"Z. c #868B86",
"A. c #8E8C82",
"S. c #8E8E89",
"D. c #918D84",
"F. c #8E9186",
"G. c #8E928A",
"H. c #939186",
"J. c #94948B",
"K. c #99968D",
"L. c #96988F",
"P. c #9B998E",
"I. c #959790",
"U. c #999690",
"Y. c #969A92",
"T. c #9C9B93",
"R. c #9B9F99",
"E. c #A09D93",
"W. c #99A097",
"Q. c #9EA29B",
"!. c #A2A49C",
"~. c #A8A99F",
"^. c #9FA5A0",
"/. c #9EA9A3",
"(. c #A1A6A1",
"). c #A5A9A3",
"_. c #A9AAA1",
"`. c #ABAEA8",
"'. c #A4B1AC",
"]. c #ADB1AB",
"[. c #B2B7B1",
/* pixels */
"k g F U U U U F L U U U U J L J L J L F J F F n L F U U U F F F n n n n J H j l ",
"g G R $.2.@.@.@.O.$.2.3.3.3.:.2.2.2.2.2.=.=.=.=.-.2.3.7.2. .{ P Y Y { } | H d d ",
"J T 6.v.v.k.d.h.h.v.N.A.A.C.m.b.M.M.M.M.M.M.M.M.M.B.S.J.C.s.<.<.;.;.;.1.:.T i y ",
"F O.h.Z.Z.C.C.M.M.Z.J.Y.R.I.J.S.G.J.G.J.L.G.G.G.G.Y.W.Q.I.b.y.9.1.9.u.a.u.o.0 > ",
"F X.s.M.C.M.l.k.v.n.A.J.I.J.S.S.S.A.S.S.A.F.S.A.A.S.U.R.J.k.9.&.,.;.9.w.i.o.8 > ",
"v I t.b.l.k.s.s.p.s.M.S.H.H.V.M.V.A.A.A.V.V.V.V.M.A.D.J.A.s.$...| ;.<.w.9...2 # ",
"v I r.b.b.k.s.t.t.p.n.A.H.D.A.V.V.A.V.V.V.V.V.N.V.V.H.J.V.s.$...| o.<.9.9...8 # ",
"v P r.l.b.h.s.s.p.p.n.A.H.S.V.V.N.V.V.V.A.V.A.N.N.V.D.J.V.s.&.o.o.;.:.9.1.{ 2 > ",
"v P i.l.l.v.s.p.p.s.n.D.J.A.V.N.V.V.B.V.V.V.V.V.V.V.J.J.A.s.$.$.:.:.<.q.1.{ 2 # ",
"v P i.M.M.n.d.i.i.p.n.H.J.J.V.V.V.V.A.A.A.A.V.V.B.A.K.U.D.s.$.&.<.<.1.q.9...8 # ",
"v P t.M.M.k.s.y.r.y.b.J.T.J.D.D.A.F.A.A.A.A.A.D.D.H.T.Y.D.s.$.$.<.>.q.q.1...2 > ",
"v P t.M.M.d.p.r.r.p.N.K.T.K.J.K.H.H.F.H.H.H.H.D.J.J.T.T.D.s.$.&.<.1.6.i.9.| q > ",
"v I 6.M.M.d.i.t.t.v.D.J.U.K.K.D.H.D.D.J.D.H.H.H.D.J.U.U.S.b.t.&.$.&.<.1.<.{ 8 > ",
"v P 6.l.l.s.y.s.b.D.J.D.D.D.D.D.D.D.D.D.D.D.D.D.D.A.D.D.H.H.N.p.$.#.#.<.;.Y 9 > ",
"v L 2.s.s.s.k.M.J.K.D.A.C.D.N.D.D.N.V.D.D.D.A.A.A.N.N.N.D.J.U.D.s.<.| _ o.Z 9 , ",
"v K :.r.a.d.N.J.U.K.D.V.N.N.V.V.V.D.V.V.N.D.N.A.N.A.A.b.N.D.U.E.H.s.#.( ) Z 2 > ",
"A M o.r.d.b.H.K.E.V.V.V.V.V.V.V.V.N.D.V.V.V.H.V.H.V.V.V.V.V.P.P.K.V.s.#.) m 2 > ",
"v M X.a.b.D.H.D.V.V.V.V.V.V.V.V.V.D.D.V.V.V.V.V.V.H.V.V.V.V.V.V.K.K.A.h.#.r & # ",
"v P 7.N.J.J.D.D.V.V.V.V.V.D.V.D.V.D.V.V.V.H.D.D.H.V.H.V.V.V.V.P.H.P.T.I.b.} * + ",
"F +.N.E.).T.K.K.V.P.V.H.H.K.H.D.D.H.D.H.H.H.H.H.P.H.P.P.P.P.V.P.K.E._.`.R.p.e # ",
"F 2.K.].`.(.E.U.E.E.E.E.P.T.K.K.E.E.P.P.P.K.K.E.E.P.P.P.E.E.E.P.P.E._.[.].N.L , ",
"A @.D._.).E.U.E.E.E.E.E.E.T.T.P.K.K.T.T.E.T.T.T.P.T.P.J.P.P.E.V.J.J.T._._.N.L , ",
"3 } c.H.Z.v.c.b.b.b.c.N.M.M.M.n.v.v.M.v.v.v.v.v.n.v.v.v.n.k.c.c.h.d.v.S.H.x.K # ",
"3 K e.g.y.&.#.&.$.&.5.3.<.<.<.<.5.<.<.<.<.<.&.<.<.<.<.<.;.;.:.=.#.#.#.y.h.5.e # ",
"i I e.g.8.` ( ` ' ' ' ' ' #.] ' ' ' #.#.#.' ' ' #.' ' ` ' ' ' ` ( ( ] 0.g.>.e , ",
"D [ y.j.w.] ' ' #.#.] ] #.#.#.#.%.%.#.#.%.%.#.#.#.#.] #.#.#.] ' ' ` *.u.j.r.K , ",
"v P 5.e.<.#.( ) ........o...............) ..{ { ..........{ { / / / ' 9.r.$.e , ",
"3 9 K P N r w e e e e e b w e e w w e 9 w w e e e 0 e e e e e w w w w M Z M 2 , ",
"y > < 1 > - = 2 8 2 ; o = & ; ; - - - - - = - ; ; ; -   % ; 2 ; & . # 4 v > > y ",
"d a a a t @ = 2 w 0 &   % ; 8 8 9 ; 2 2 8 2 2 8 8 8 &     ; w w : # t f ~ u a d ",
"l l l l j t 4 e ) Z 8 % = r V ^ ^ V Z Z V V V ^ ^ V 8 % % w ^ C v u j x W l l l ",
"x c c c z s 4 ^ ,.#.e & ; m ` #...) / ..) { ) ) o.{ w & & M #.' N p l x h c c c ",
"x x x x j a 5 { w.<.P ; ; M ^ ^ [ ^ Z ^ Z Z ^ ^ ^ Z w % ; Z 9.9.Z p k c z x x x ",
"x x k d s $ 4 O.g.g.X.r 9 8 e e 9 e 0 8 8 e 8 w 9 8 2 ; M o.a.a.Y u s k l z c x ",
"z k H S < X 2 X.k.l.y.X.K 9 ; , 2 2 9 2 2 2 2 ; - - 8 M o.w.l.a.I 2 > i H k l l ",
"E ! 4.3.I ; - V r.j.g.e.X.K e e e D r e b e e e 9 w V ..<.u.g.<.N ; 4 b Y J p d ",
"Q t.J.Y.n.{ 8 0 { <.q.8.$...[ [ ^ [ / ) ^ / ^ ^ [ ^ ^ ` ' #.' Z e 8 M | o.Y 0 4 ",
"R p.Y.'.Y.t.M : w Z { ..^ ^ ^ / ( ( ^ ^ ^ ^ ^ ^ ^ ^ ^ ^ ^ m w 8 q M | >.>.{ 0 > ",
"U 3.H.).Y.d.| 0 ; 9 r m B B r B m m m r r B B B r m m r 7 * * 2 b { :.>.:.Z 0 > ",
"F -.V.T.Y.k.:.Y 9 ; 8 r ^ ^ B B m B B B B m r r m C ^ m 6 % % w } =.:.>.=.N 6 > ",
"F @.V.Y.F.d.6.o.b - 9 P $.$.o.{ { ......[ { ^ ^ ^ ..#.{ r ; 2 N =.:.;.o.| m * # ",
"F +.N.T.F.d.6.=.N , 9 } r.r.e.&.$.5.5.5.<.&.&...{ #.8.<.[ 2 4 P =.=.| =.| N & . ",
"v X.B.Y.F.a.>.o.M 2 e X.r.p.r.5.5.5.5.5.5.5.5.$.#.%.q.r.[ 9 4 N | o.:.6.>.{ 2 # ",
"A X.M.W.B.s.>._ b 2 e } e.e.e.&.&.5.5.5.5.$.&.O.$.&.r.r.{ 9 : M | :.6.k.n.3.e > ",
"A  .M.I.F.k.i.=.e ; e X.e.q.9.$.5.5.5.5.5.&.&.&.$.<.y.y.{ 2 : M | 1.n.F.I.v.P 5 ",
"F } m.I.G.B.n.>.b   2 X.y.y.e.e.e.e.e.e.5.e.5.<.8.y.j.y.{ &   b :.d.F.W.Q.N.I 5 ",
"A } m.I.L.G.F.d.L   ; { 9.q.9.9.e.e.e.e.9.<.9.8.8.w.g.9.C %   b 1.M.F.W.Y.m.[ i ",
"v X.V.I.G.F.F.M.2.e ; r / ) ........#...#.......{ ....) b & : Y i.B.Z.Y.L.c.P 4 ",
"D O.N.T.J.S.A.A.n.-.D 8 8 0 8 0 w w w w w w w w 8 7 8 8 0 M O.i.n.n.B.F.L.n.F 1 ",
"F -.A.E.U.A.B.Z.F.M.3.D ; & ; - & & - = & & & & = o & 2 L 6.M.B.B.n.B.F.L.n.P i ",
"U 2.D._.Q.P.F.J.Y.Y.D.z.-.+.+.+.+.+.+.+.+.+. .+.+.R } -.s.S.I.P.B.V.V.W.R.m.P 4 ",
"F 2.H._.).T.J.L.T.W.!.R.E.T.P.E.T.E.T.T.T.T.Y.T.T.P.K.I.T.T.Q.Y.L.F.W.~.!.m.L 4 ",
"A  .N.Y.T.J.A.D.D.H.I.T.Q.^.^.^.(.(.(./.Q.^.^.^.^.^.Q.R.U.J.S.A.A.A.S.R.Y.x.K > ",
"5 P t.C.M.k.s.p.s.s.s.h.k.k.k.h.h.h.h.h.s.s.s.g.s.h.h.k.h.s.a.y.y.y.h.C.C.5.e O ",
"3 M <.a.w.<.&.&.<.%.%.,.,.<.;.;.%.&.&.#.%.#.#.#.#.,.#.#.%.#.#.#.#.#.8.w.a.$.q # ",
"5 L 9.f.f.0.&.8.,.8.,.,.,.#.,.,.,.#.*.%.#.' ] ] ] ] ] *.] %.8.%.] ' 8.f.g.<.e # ",
"q P q.j.f.0.0.9.8.0.8.8.,.1.,.,.8.8.8.,.,.,.,.8.,.8.,.,.8.8.8.8.8.8.8.f.g.<.M > ",
"5 e o.<.$.o.{ o.{ ..{ { ....) ..{ { ..) / / ^ / ^ { / ) { ^ / ^ / ^ ..#.:...0 4 ",
"1 2 9 b v v q q q 9 e q q q 5 q 9 5 9 9 q 5 5 9 q 5 q q 4 q 4 q q 4 e e b 0 4 1 ",
"y > $ 1 1 1 1 1 1 $ 1 1 1 1 1 1 1 1 1 1 1 < < 1 < < < < 1 < < < > < 1 < 1 1 < y "
};
